<?xml version="1.0" encoding="UTF-8"?>
<svg id="Layer_2" data-name="Layer 2" xmlns="http://www.w3.org/2000/svg" viewBox="0 0 95.16 103.01">
  <defs>
    <style>
      .cls-1 {
        fill: #fff;
      }
    </style>
  </defs>
  <g id="Layer_2-2" data-name="Layer 2">
    <g id="Layer_1-2" data-name="Layer 1-2">
      <path class="cls-1" d="M95.11,4.27c-2.44-.47-4.9-.9-7.36-1.29C77.89,1.41,67.84.45,57.62.12c-2.55-.08-5.12-.12-7.69-.12-14.1,0-27.92,1.22-41.34,3.57C5.71,4.07,2.85,4.62.01,5.23c-.05,1.44.03,10.05.23,12.86.51,7.06,1.66,13.94,3.39,20.58,5.97,23,18.86,43.2,36.3,58.28,2.46,2.12,5.01,4.15,7.65,6.06.26-.19,6.53-5.03,9.23-7.46,22.48-20.14,37.01-48.97,38.32-81.21.04-.9.05-8.32-.03-10.07h.01ZM58.52,85.48s-.06.06-.11.1c-2.6,2.34-5.67,4.66-9.11,6.88l-.53.34-.54-.33-3-1.86-1.34-.83,1.33-.86c12.81-8.27,18.42-17.07,18.18-20.42-.05-.72-.29-.83-.4-.88-.1-.05-.33-.12-.76-.12-.84,0-3.22.33-7.28,3.34-10.27,7.64-16.16,10.74-19.29,12.01l-.57.23-.46-.4c-.97-.85-1.9-1.7-2.77-2.54l-.24-.24-1.04-.94,1.77-.61s5.15-1.18,19.42-11.79c3.88-2.88,7.49-4.4,10.44-4.4h0c1.1,0,2.11.21,3.01.62,2.07.95,3.32,2.85,3.5,5.35.34,4.81-3.47,11.3-10.2,17.36h0ZM78.31,61.81c-1.38,2.42-2.89,4.82-4.51,7.12l-3.04,4.31s7-12.52-2.02-16.09c-.78-.31-1.69-.5-2.73-.5-4.31,0-8.97,2.09-15.55,7.19-6.53,5.05-13.7,9.31-21.3,12.64l-.65.28-.48-.51c-.08-.09-.16-.17-.23-.25-.74-.81-1.46-1.62-2.13-2.43l-.87-1.03,1.24-.53c7.59-3.23,14.71-7.4,21.15-12.39,7.7-5.96,14.77-9.11,20.46-9.11,1.77,0,3.38.31,4.79.93,3.44,1.5,5.55,4.66,5.93,8.9.03.32.05.66.05.99v.27l-.13.24.02-.03ZM84.32,48.78c-.65,1.81-1.37,3.59-2.13,5.31l-1.34,2.49c.43-.27,1.21-7.49-5.44-10.51-1.28-.58-2.82-.85-4.54-.85-6.76,0-16.39,4.45-26.41,12.22-6.59,5.11-13.63,9.24-20.9,12.28l-.72.3-.47-.62c-.72-.96-1.4-1.91-2.02-2.82l-.7-1.02,1.15-.47c7.1-2.9,13.96-6.89,20.39-11.88,11.1-8.59,21.64-13.33,29.7-13.33,2.46,0,4.7.43,6.66,1.29,3.06,1.33,5.4,3.71,6.76,6.87l.16.36-.13.37h-.02ZM88.13,34.59c-.23,1.31-.5,2.64-.81,3.98l-.45,1.97-1.29-1.55c-1.11-1.33-2.51-2.37-4.16-3.09-1.89-.82-4.11-1.24-6.61-1.24-9.68,0-22.32,4.25-36.96,17-5.61,4.89-12.68,7.71-20.2,9.36l-.72.16-.36-.64c-.59-1.02-1.15-2.07-1.69-3.12l-.61-1.18,1.3-.26c7.14-1.42,13.53-4.3,19.01-8.54,15.09-11.69,29.36-18.13,40.2-18.13h0c3.25,0,6.2.57,8.78,1.69,1.56.68,2.99,1.57,4.25,2.66l.43.37-.1.56h-.01ZM80.19,11.97c-13.37,0-26.39,3.77-36.84,13.05-15.95,11.96-20.88,14.05-33.55,13.88-1.63-6.57-2.5-13.45-2.5-20.53,0-.71,0-5.07.03-5.77,25.32-6.24,63.2-5.22,81.62-1.71.06.56.44,6.04.45,8.25-1.82-4.59-3.98-7.17-9.22-7.17h.01Z"/>
    </g>
  </g>
</svg>